<svg width="351" height="98" viewBox="57 27 351 98" xmlns="http://www.w3.org/2000/svg" xmlns:xlink="http://www.w3.org/1999/xlink"><defs><linearGradient x1="100%" y1="0%" x2="0%" y2="86.591%" id="b"><stop stop-color="#E41E1E" offset="0%"/><stop stop-color="#E53F3F" offset="36.982%"/><stop stop-color="#B81818" offset="100%"/></linearGradient><path id="a" d="M13.414 12.734L99.94 0 88.896 97.888 0 84.348z"/></defs><text fill="none" font-family="AvenirNext-Medium, Avenir Next" font-size="48" font-weight="400"><tspan x="157.34" y="100" fill="#E41F1F">Devschool</tspan></text><text fill="none" font-family="AvenirNext-Medium, Avenir Next" font-size="8" font-weight="400" letter-spacing="-.222"><tspan x="395.358" y="99" fill="#E41F1F">tm</tspan></text><path d="M399.5 104a7.5 7.5 0 1 0 0-15 7.5 7.5 0 0 0 0 15z" stroke="#E41F1F" fill="none"/><g fill="none" fill-rule="evenodd" transform="translate(57 27)"><mask id="c" fill="#fff"><use xlink:href="#a"/></mask><use fill="url(#b)" xlink:href="#a"/><path d="M29.096 76.97V31.284c0-.244-9.572 0-9.572 0l5.756-10.317h28.08c8.736 0 15.427 2.302 20.074 6.906 4.647 4.603 6.97 11.244 6.97 19.922 0 9.232-2.463 16.403-7.39 21.51-4.926 5.11-11.82 7.663-20.682 7.663H29.096zm11.732-9.902h8.761c6.17 0 10.773-1.53 13.808-4.592 3.035-3.062 4.552-7.712 4.552-13.95 0-4.825-1.22-8.843-3.657-12.053-1.676-2.208-3.695-3.733-6.056-4.575-2.362-.843-5.803-1.264-10.323-1.264h-7.085v36.434z" fill="#FFF" mask="url(#c)"/></g></svg>