<svg width="2880" height="2040" viewBox="978 196 1440 1024" xmlns="http://www.w3.org/2000/svg" xmlns:xlink="http://www.w3.org/1999/xlink"><defs><linearGradient x1="100%" y1="0%" x2="0%" y2="86.591%" id="b"><stop stop-color="#E41E1E" offset="0%"/><stop stop-color="#E53F3F" offset="36.982%"/><stop stop-color="#B81818" offset="100%"/></linearGradient><path id="a" d="M17.84 16.893L132.92 0l-14.688 129.852L0 111.89z"/></defs><g fill="none" fill-rule="evenodd" transform="translate(1479 681)"><mask id="c" fill="#fff"><use xlink:href="#a"/></mask><use fill="url(#b)" xlink:href="#a"/><path d="M38.698 102.102V41.5c0-.324-12.73 0-12.73 0l7.654-13.685h37.347c11.618 0 20.517 3.053 26.698 9.16 6.18 6.107 9.27 14.916 9.27 26.427 0 12.248-3.275 21.76-9.827 28.536S81.388 102.102 69.6 102.102H38.698zm15.604-13.134h11.652c8.207 0 14.328-2.03 18.364-6.092 4.036-4.062 6.054-10.23 6.054-18.504 0-6.401-1.621-11.731-4.863-15.99-2.23-2.928-4.915-4.951-8.056-6.069-3.14-1.117-7.717-1.676-13.729-1.676h-9.422v48.331z" fill="#FFF" mask="url(#c)"/></g><g fill="none" fill-rule="evenodd"><text font-family="AvenirNext-Medium, Avenir Next" font-size="72" font-weight="400" letter-spacing="-2" fill="#E41F1F" transform="translate(978 196)"><tspan x="634.26" y="584">Devschool</tspan></text><text font-family="AvenirNext-Medium, Avenir Next" font-size="10" font-weight="400" letter-spacing="-.278" fill="#E41F1F" transform="translate(978 196)"><tspan x="978.698" y="586">tm</tspan></text><path d="M1962.5 788a9.5 9.5 0 1 0 0-19 9.5 9.5 0 0 0 0 19z" stroke="#E41F1F"/></g></svg>